<svg id="OBJECTS" xmlns="http://www.w3.org/2000/svg" viewBox="0 0 1287.85 817.82"><defs><style>.cls-1{fill:#4b0027;}.cls-2{fill:#fe9900;}.cls-3{fill:#fff;}.cls-4{fill:#a1262a;}</style></defs><circle class="cls-1" cx="988.39" cy="380.05" r="22.4"/><path class="cls-1" d="M988.39,404.65a24.6,24.6,0,1,1,24.6-24.6h0A24.63,24.63,0,0,1,988.39,404.65Zm0-44.8a20.21,20.21,0,1,0,20.21,20.21h0A20.22,20.22,0,0,0,988.39,359.85Z"/><polygon class="cls-2" points="937.29 362.75 946.15 353.03 948.17 345.93 947.24 311.39 952.23 288.01 962.34 273.4 973.78 265.85 992.41 263.78 1007.87 267.07 1023.09 277.05 1029.06 287.28 1032.71 303.35 1033.81 321.13 1033.2 337.93 1032.95 347.43 1036.36 355.34 1043.42 362.77 1045.37 365.44 937.94 364.83 937.29 362.75"/><path class="cls-1" d="M1047.57,367H937.94a3.34,3.34,0,0,1-1.89-6.09c3.44-2.36,9.32-7.48,9.93-15.19a81.23,81.23,0,0,0-.32-9.1c-1-16.22-2.94-46.42,12.92-63,7.61-8,18.45-11.87,32.2-11.63l-.08,4.4c-12.49-.22-22.22,3.23-29,10.27C947.17,291.86,949,320.8,950,336.35a83.1,83.1,0,0,1,.31,9.73c-.62,7.74-5.34,13.24-9.28,16.53h106.49Z"/><path class="cls-1" d="M1046.65,366.83c-.6-.28-14.58-6.85-15.69-20.73a85.35,85.35,0,0,1,.32-9.73c1-15.55,2.82-44.49-11.7-59.69-6.73-7.05-16.47-10.51-29-10.27l-.08-4.4c13.75-.25,24.59,3.67,32.2,11.63,15.86,16.59,13.94,46.79,12.91,63a86.39,86.39,0,0,0-.32,9.1c.91,11.28,13,17,13.15,17.08Z"/><rect class="cls-3" x="934.09" y="362.28" width="113.96" height="21.92" rx="3.99"/><path class="cls-1" d="M1043.67,386.39H938.47a6.58,6.58,0,0,1-6.57-6.58V366.66a6.58,6.58,0,0,1,6.57-6.58h105.2a6.6,6.6,0,0,1,6.58,6.58v13.15A6.6,6.6,0,0,1,1043.67,386.39Zm-105.2-21.91a2.2,2.2,0,0,0-2.18,2.18v13.15a2.19,2.19,0,0,0,2.18,2.19h105.2a2.19,2.19,0,0,0,2.19-2.19V366.66a2.19,2.19,0,0,0-2.19-2.18Z"/><path class="cls-1" d="M988.67,264l2.71-3.7c2.87-3.92,17.63-23.26,26.43-19.69a6.29,6.29,0,0,1,4,7.16c-1.58,9.26-15.74,15.42-28.52,16Zm26.71-19.45c-3.1,0-9.91,5.09-17.4,14.37,12.58-1.91,18.87-8.38,19.47-11.89a2.08,2.08,0,0,0-2.07-2.48Z"/><path class="cls-1" d="M992.07,264l-4.59-.21c-12.78-.6-26.94-6.76-28.52-16a6.26,6.26,0,0,1,4-7.16c8.83-3.57,23.56,15.77,26.43,19.69Zm-26.72-19.45a2.08,2.08,0,0,0-2.1,2.06,2,2,0,0,0,0,.42c.6,3.51,6.88,10,19.46,11.89-7.49-9.28-14.3-14.37-17.4-14.37Z"/><path class="cls-4" d="M991.77,261.62c0,1-.52,1.89-1.16,1.89s-1.15-.85-1.15-1.89.51-1.89,1.15-1.89S991.77,260.58,991.77,261.62Z"/><path class="cls-1" d="M880.67,345.32l5.56-56.71L820,279l-5,50.89c-.61,6.26-6.12,11-12.81,11.1l-5.46.05a28.75,28.75,0,0,0-7.43,1.07,38.73,38.73,0,0,1-2.52,47.39,28.27,28.27,0,0,0,9.89,2.16l41,1.42a41.86,41.86,0,0,0,5.71-.18,38.76,38.76,0,0,1,37.3-47.58Z"/><path class="cls-1" d="M794.73,393.73a30.87,30.87,0,0,1-8.77-2.2l-2.81-1.17,2-2.3a36.5,36.5,0,0,0,2.39-44.7l-1.76-2.53,3-.84a30.43,30.43,0,0,1,8-1.14l5.46-.06c5.57-.05,10.14-4,10.65-9.11l5.21-53.18,70.56,10.24-6,60.76h-2a36.55,36.55,0,0,0-35.19,44.88l.58,2.45-2.5.24a46.22,46.22,0,0,1-6,.19l-41-1.42C796,393.84,795.36,393.79,794.73,393.73Zm-4.28-5.28a26.12,26.12,0,0,0,6.33,1l41,1.42h3a40.94,40.94,0,0,1,33.53-47.19,43.62,43.62,0,0,1,4.42-.5l5.16-52.71-61.86-9-4.76,48.6c-.72,7.38-7.16,13-15,13.07l-5.45.06a25.81,25.81,0,0,0-3.92.33,40.91,40.91,0,0,1-2.42,44.88Z"/><path class="cls-2" d="M879.37,358.65l1.3-13.33a38.78,38.78,0,0,0-37.3,47.58C862.31,391.07,877.58,377,879.37,358.65Z"/><path class="cls-1" d="M841.67,395.28l-.43-1.87a40.91,40.91,0,0,1,39.41-50.28h2.45l-1.54,15.77c-1.87,19-17.84,34.28-38,36.22Zm36.57-47.66a36.53,36.53,0,0,0-33.58,39.26,36.14,36.14,0,0,0,.46,3.6c17.12-2.5,30.46-15.7,32.06-32Z"/><path class="cls-2" d="M789.33,342.11c-9.91,2.8-17.43,10.88-18.69,21-1.44,11.48,5.55,22,16.17,26.39A38.73,38.73,0,0,0,789.33,342.11Z"/><path class="cls-1" d="M787.43,392.14l-1.46-.61c-11.81-4.88-19-16.68-17.51-28.7,1.34-10.77,9.3-19.73,20.27-22.84l1.51-.42.9,1.29a40.93,40.93,0,0,1-2.67,50.08Zm1-47.44a23.08,23.08,0,0,0-15.59,18.68c-1.22,9.71,4.11,18.94,13.36,23.43a36.49,36.49,0,0,0,2.23-42.11Z"/><rect class="cls-2" x="838.12" y="226.46" width="33.18" height="86.74" rx="4.29" transform="translate(502.9 1094.19) rotate(-84.41)"/><path class="cls-1" d="M891.33,292.34l-76.94-7.54a6.9,6.9,0,0,1-6.2-7.53v0l2.31-23.64a6.92,6.92,0,0,1,7.55-6.2L895,255a6.92,6.92,0,0,1,6.2,7.55l-2.32,23.64A6.91,6.91,0,0,1,891.33,292.34Zm-73.71-40.56a2.53,2.53,0,0,0-2.75,2.26l-2.31,23.64a2.51,2.51,0,0,0,2.25,2.75h0l77,7.54a2.53,2.53,0,0,0,2.75-2.26l2.32-23.64a2.53,2.53,0,0,0-2.26-2.75Z"/><path class="cls-1" d="M853.21,251.89l3.06-3.42c3.24-3.62,19.79-21.43,28.22-17a6.26,6.26,0,0,1,3.25,7.51c-2.47,9.07-17.17,13.81-29.94,13.17Zm28.48-16.75c-3.09-.31-10.36,4.09-18.72,12.6,12.71-.67,19.59-6.5,20.53-9.93a1.86,1.86,0,0,0-1-2.45h0A1.78,1.78,0,0,0,881.69,235.14Z"/><path class="cls-1" d="M856.59,252.22l-4.55-.66c-12.66-1.84-26.15-9.35-26.82-18.72a6.24,6.24,0,0,1,4.65-6.73c9.11-2.7,21.91,18,24.38,22.16Zm-24.69-22a2.12,2.12,0,0,0-.79.06,1.87,1.87,0,0,0-1.52,2.17v0c.26,3.55,5.88,10.6,18.21,13.72-6.54-9.92-12.81-15.65-15.91-16Z"/><path class="cls-4" d="M856.53,249.82c-.1,1-.7,1.83-1.34,1.77s-1.07-1-1-2,.7-1.83,1.34-1.77S856.63,248.79,856.53,249.82Z"/><path class="cls-1" d="M667.43,215.23l2.11-3.69c2.22-3.9,13.75-23.24,22.22-20.89a5.8,5.8,0,0,1,4.4,6.17c-.48,8.68-12.85,15.83-24.53,17.73Zm22.51-20.7c-2.85.33-8.57,5.72-14.48,15,11.36-3.07,16.46-9.69,16.64-13a1.73,1.73,0,0,0-1.41-2h0A1.8,1.8,0,0,0,689.94,194.53Z"/><path class="cls-1" d="M670.55,214.88l-4.24.28c-11.81.8-25.48-3.37-27.91-11.72a5.81,5.81,0,0,1,2.89-7c7.72-4.21,23.33,12,26.38,15.31Zm-26.61-15.07a1.94,1.94,0,0,0-.7.2,1.73,1.73,0,0,0-1,2.27v0c.93,3.16,7.39,8.45,19.15,8.87C653.59,203.44,646.79,199.48,643.94,199.81Z"/><path class="cls-4" d="M670,212.72c.11.95-.28,1.79-.86,1.85s-1.16-.65-1.27-1.61.28-1.79.87-1.86S669.92,211.76,670,212.72Z"/><path class="cls-3" d="M742.51,329.25,621.14,343.18a3.92,3.92,0,0,1-4.34-3.45h0l-10.08-87.9L735.87,237,746,324.91a3.93,3.93,0,0,1-3.47,4.34Z"/><path class="cls-1" d="M742.68,331.28,621.44,345.19a6,6,0,0,1-6.66-5.26v0L604.46,250l133.2-15.28L748,324.62a6,6,0,0,1-5.27,6.65ZM609,253.62l9.85,85.82a1.94,1.94,0,0,0,2.14,1.71h0l121.25-13.91a2,2,0,0,0,1.71-2.16l-9.85-85.82Z"/><rect class="cls-2" x="596.99" y="216.51" width="147.01" height="38.73" rx="5.27" transform="translate(-22.53 78.02) rotate(-6.55)"/><path class="cls-1" d="M740.63,249.41,605.23,265a7.41,7.41,0,0,1-8.19-6.5l-3.19-27.83a7.4,7.4,0,0,1,6.5-8.19l135.41-15.54a7.4,7.4,0,0,1,8.18,6.5l3.19,27.83A7.4,7.4,0,0,1,740.63,249.41ZM600.81,226.47a3.33,3.33,0,0,0-2.92,3.68L601.08,258a3.33,3.33,0,0,0,3.69,2.93h0l135.4-15.54a3.33,3.33,0,0,0,2.92-3.68l-3.19-27.84a3.33,3.33,0,0,0-3.68-2.92Z"/><rect class="cls-2" x="655.79" y="216.51" width="35.82" height="120.05" transform="translate(-27.15 78.65) rotate(-6.55)"/><path class="cls-1" d="M700.58,336,661,340.51,646.8,217.2l39.63-4.55Zm-36.05,0,31.54-3.62L682.85,217.15l-31.54,3.62Z"/><path class="cls-1" d="M499.08,219.69,501.8,216c2.87-3.91,17.63-23.25,26.42-19.68a6.26,6.26,0,0,1,4,7.16c-1.58,9.26-15.74,15.41-28.51,16Zm26.72-19.45c-3.1,0-9.91,5.09-17.4,14.37,12.58-1.91,18.86-8.38,19.46-11.89a1.86,1.86,0,0,0-1.22-2.33l-.07,0A2,2,0,0,0,525.8,200.24Z"/><path class="cls-1" d="M502.48,219.69l-4.59-.21c-12.78-.61-26.94-6.76-28.52-16a6.29,6.29,0,0,1,4-7.16c8.81-3.57,23.56,15.77,26.42,19.68Zm-26.72-19.45a2,2,0,0,0-.77.13,1.86,1.86,0,0,0-1.3,2.3v.05c.6,3.51,6.89,10,19.47,11.89C485.68,205.33,478.87,200.24,475.76,200.24Z"/><path class="cls-4" d="M502.18,217.31c0,1-.51,1.89-1.15,1.89s-1.16-.85-1.16-1.89.52-1.89,1.16-1.89S502.18,216.27,502.18,217.31Z"/><rect class="cls-3" x="490.83" y="359.01" width="21.58" height="29.72"/><path class="cls-1" d="M514.61,390.93h-26V356.82h26ZM493,386.54h17.19V361.21H493Z"/><path class="cls-1" d="M540.78,323.33h7.9a2.23,2.23,0,0,0,2.23-2.23,2.36,2.36,0,0,0-.33-1.16l-22.71-37.19a2.23,2.23,0,0,1,.74-3.06,2.17,2.17,0,0,1,1.16-.33h6.15a2.24,2.24,0,0,0,2.24-2.22,2.29,2.29,0,0,0-.36-1.22L503.05,222a2.22,2.22,0,0,0-3.06-.7,2.34,2.34,0,0,0-.7.7l-33.91,53.91a2.24,2.24,0,0,0,.72,3.08,2.21,2.21,0,0,0,1.17.34h6.21a2.23,2.23,0,0,1,2.23,2.23,2.36,2.36,0,0,1-.33,1.16l-22.71,37.19a2.23,2.23,0,0,0,.74,3.06,2.17,2.17,0,0,0,1.16.33h7.89a2.23,2.23,0,0,1,2.23,2.23,2.2,2.2,0,0,1-.31,1.14l-21.77,36.44a2.23,2.23,0,0,0,1.91,3.37H558.73a2.23,2.23,0,0,0,1.91-3.37L538.87,326.7a2.23,2.23,0,0,1,1.91-3.37Z"/><path class="cls-1" d="M558.73,368.71H444.52a4.42,4.42,0,0,1-3.8-6.7l21.77-36.43-7.92-.05a4.44,4.44,0,0,1-4.42-4.46,4.39,4.39,0,0,1,.64-2.28l22.72-37.18-6.24-.06a4.44,4.44,0,0,1-3.75-6.78l33.91-53.91a4.4,4.4,0,0,1,3.72-2.07h0a4.39,4.39,0,0,1,3.73,2l34.74,53.91a4.42,4.42,0,0,1-3.72,6.82h-6.15l22.68,37.24a4.43,4.43,0,0,1-3.77,6.74h-7.91L562.53,362a4.43,4.43,0,0,1-3.8,6.7ZM501.2,223.2l-34,53.91,6.24.05a4.43,4.43,0,0,1,3.78,6.74L454.5,321.08l7.92.05a4.42,4.42,0,0,1,3.8,6.7l-21.77,36.43,57.08.05h57.16L537,327.83a4.43,4.43,0,0,1,3.8-6.7h7.9L526,283.9a4.43,4.43,0,0,1,3.78-6.74h6.15Z"/><path class="cls-2" d="M455.38,343.6s59-2.63,81.62-44"/><path class="cls-1" d="M455.47,345.8l-.19-4.39c.57,0,58-3.08,79.79-42.83l3.86,2.11c-9.53,17.4-27,30.71-50.54,38.51A134,134,0,0,1,455.47,345.8Z"/><path class="cls-2" d="M482.76,248.29s11.06,34.75,46.6,37.91"/><path class="cls-2" d="M529.17,288.39c-36.58-3.25-48.39-39.07-48.5-39.44l4.18-1.33-2.09.67,2.09-.67C485,248,495.94,281,529.56,284Z"/><path class="cls-1" d="M1144,226l3.49-3c3.68-3.15,22.46-18.62,30.21-13.14a6.27,6.27,0,0,1,2.23,7.88c-3.65,8.65-18.84,11.42-31.41,9.09Zm30.44-12.86c-3-.7-10.81,2.7-20.21,10,12.68,1,20.27-3.86,21.65-7.14a1.87,1.87,0,0,0-.65-2.55l-.06,0a2.14,2.14,0,0,0-.72-.33Z"/><path class="cls-1" d="M1147.32,226.72l-4.43-1.26c-12.3-3.49-24.68-12.71-24.11-22.09a6.25,6.25,0,0,1,5.49-6.06c9.39-1.48,19.35,20.72,21.25,25.18Zm-21.58-25a2.1,2.1,0,0,0-.79,0,1.87,1.87,0,0,0-1.79,1.94v.06c-.21,3.55,4.43,11.29,16.24,16-5.17-10.81-10.64-17.32-13.66-18Z"/><path class="cls-4" d="M1147.57,224.33c-.24,1-.93,1.72-1.56,1.58s-.93-1.09-.69-2.1.93-1.72,1.55-1.58S1147.81,223.32,1147.57,224.33Z"/><path class="cls-2" d="M1135.33,420l.45.09a16.61,16.61,0,0,0,19.07-12.66l3.67-15.66a151.14,151.14,0,0,1-35.88,8.51A16.56,16.56,0,0,0,1135.31,420Z"/><path class="cls-1" d="M1134.37,422a18.25,18.25,0,0,1-11.16-7.84,19.12,19.12,0,0,1-2.72-14.37l.33-1.56,1.58-.17a148.76,148.76,0,0,0,35.35-8.39l3.84-1.43-4.6,19.65a18.74,18.74,0,0,1-21.61,14.32l-.48-.09h0Zm-9.82-19.77a14.5,14.5,0,0,0,2.33,9.52,13.92,13.92,0,0,0,8.89,6.06l.42.08a14.34,14.34,0,0,0,16.52-11l2.75-11.74a152.5,152.5,0,0,1-30.91,7.12Z"/><path class="cls-2" d="M1166.34,235.47c-6-4.57-14-8-24.61-9.18-31-3.56-50.84,14.54-58.75,32.48C1091.37,259.21,1129,259.62,1166.34,235.47Z"/><path class="cls-1" d="M1079.69,260.8l1.28-2.92c8.28-18.76,28.65-37.49,61-33.77,10.21,1.18,18.85,4.41,25.69,9.61l2.49,1.89-2.63,1.7c-38.25,24.72-77.24,24-84.66,23.65Zm68.68-31.14a59.37,59.37,0,0,0-6.89-1.18c-28.27-3.25-46.65,11.93-55.06,28.19a146.55,146.55,0,0,0,75.94-21.3,45.45,45.45,0,0,0-14-5.71Z"/><path class="cls-3" d="M1129.89,370.15c-2.84,11.83-5.38,22.33-7.15,29.62a2.3,2.3,0,0,1-.1.51,151.14,151.14,0,0,0,35.88-8.51l7.84-33.48A149.54,149.54,0,0,1,1129.89,370.15Z"/><path class="cls-1" d="M1119.87,402.79l.64-3.09a1.9,1.9,0,0,1,.1-.46c1.76-7.28,4.31-17.77,7.14-29.61l.34-1.38,1.39-.26a146.57,146.57,0,0,0,35.93-11.69l4.13-2-9.15,39.07-1.1.41a152,152,0,0,1-36.41,8.64ZM1131.7,372c-2.39,10-4.56,18.91-6.2,25.69a147.79,147.79,0,0,0,31.15-7.61l6.55-28A151.3,151.3,0,0,1,1131.7,372Z"/><path class="cls-3" d="M1182.07,291.15c.37-1.58.67-3.17.93-4.77A144.22,144.22,0,0,1,1144.7,307c-2.19,9.69-4.77,20.79-7.42,32.05a146.48,146.48,0,0,0,37.28-15.82Z"/><path class="cls-1" d="M1134.3,342.16l.84-3.59c2.9-12.29,5.39-23.07,7.41-32l.27-1.18L1144,305a141.81,141.81,0,0,0,37.71-20.34l4.37-3.3-.87,5.41c-.31,1.88-.61,3.44-1,4.92l-7.73,33-.79.48a148.79,148.79,0,0,1-37.84,16.06Zm12.27-33.47c-1.77,7.82-3.88,17-6.29,27.25a143.56,143.56,0,0,0,32.35-14.09l7.12-30.4a146.74,146.74,0,0,1-33.18,17.24Z"/><path class="cls-3" d="M1179.68,253.29a41.68,41.68,0,0,0-13.34-17.82c-37.37,24.15-75,23.74-83.36,23.3a50.31,50.31,0,0,0-2.45,6.85,17.2,17.2,0,0,0,18.63,21.63h.3a15.24,15.24,0,0,0,13.15-12.32v-.14c2.94-15.72,30.76-19.24,36.33-1.8A147.39,147.39,0,0,0,1179.68,253.29Z"/><path class="cls-1" d="M1092.69,289.05a19.38,19.38,0,0,1-14.46-23.28q.07-.36.18-.72a53.39,53.39,0,0,1,2.56-7.15l.61-1.38,1.52.07c7.19.38,44.93,1,82-22.95l1.3-.84,1.23.94a43.91,43.91,0,0,1,14,18.74l.6,1.49-1.23,1a150,150,0,0,1-31.19,20l-2.27,1.09-.77-2.4c-2.55-8-10.16-10.44-16.43-10.05-6.57.41-14.26,4.21-15.64,11.59v.14a17.33,17.33,0,0,1-15,14.09h-.3A19.42,19.42,0,0,1,1092.69,289.05Zm-8.28-28a49.15,49.15,0,0,0-1.76,5.17,15,15,0,0,0,16.25,18.86h.29a13,13,0,0,0,11.26-10.55v-.14c1.55-8.29,9.64-14.53,19.67-15.16,9-.56,16.59,3.6,20,10.75A145.1,145.1,0,0,0,1177,252.64a39.29,39.29,0,0,0-10.81-14.48c-35.66,22.5-71.64,23.18-81.78,22.84Z"/><path class="cls-2" d="M1174.56,323.26a146.48,146.48,0,0,1-37.28,15.82c-2.49,10.58-5,21.28-7.39,31.07a149.54,149.54,0,0,0,36.47-11.86Z"/><path class="cls-1" d="M1127,372.93l.79-3.3c2.35-9.78,4.9-20.48,7.39-31.06l.3-1.27,1.27-.35a143.73,143.73,0,0,0,36.71-15.57l4.46-2.68-9.62,41.12-1,.45a150.52,150.52,0,0,1-37,12Zm12.16-32.08c-2.11,9-4.27,18-6.29,26.47a146.47,146.47,0,0,0,31.63-10.57l6.8-29.05a149.19,149.19,0,0,1-32.18,13.15Z"/><path class="cls-2" d="M1183,286.38a64.49,64.49,0,0,0-.12-22,57.36,57.36,0,0,0-3.2-11.11A147.52,147.52,0,0,1,1149,273a25.93,25.93,0,0,1,.29,13.12c-1.1,5.43-2.68,12.68-4.55,21A144.21,144.21,0,0,0,1183,286.38Z"/><path class="cls-1" d="M1141.67,310.45l.88-3.9c2-8.83,3.52-15.87,4.55-20.91a23.92,23.92,0,0,0-.24-12l-.58-1.83L1148,271a145.59,145.59,0,0,0,30.27-19.37l2.31-1.92,1.13,2.78A59.8,59.8,0,0,1,1185,264a66.47,66.47,0,0,1,.13,22.73l-.15.87-.7.53a146.16,146.16,0,0,1-38.88,21Zm9.88-36.32a29.69,29.69,0,0,1-.15,12.38c-.87,4.29-2.1,10-3.67,17A142.11,142.11,0,0,0,1181,285.16a61.57,61.57,0,0,0-.24-20.36,54.67,54.67,0,0,0-2-7.87A150.25,150.25,0,0,1,1151.55,274.13Z"/><circle class="cls-3" cx="171.51" cy="296.18" r="68.4" transform="translate(-159.2 208.03) rotate(-45)"/><path class="cls-1" d="M176.86,366.58a70.59,70.59,0,1,1,65-75.77v0A70.68,70.68,0,0,1,176.86,366.58ZM166.5,230.18a66.2,66.2,0,1,0,71,61v0A66.26,66.26,0,0,0,166.5,230.18Z"/><path class="cls-3" d="M171.17,201.35a7.57,7.57,0,1,1-8.12-7,7.57,7.57,0,0,1,8.12,7Z"/><path class="cls-1" d="M164.36,211.66a9.77,9.77,0,1,1,9-10.48h0A9.78,9.78,0,0,1,164.36,211.66Zm-1.15-15.1a5.38,5.38,0,1,0,5.77,5h0A5.38,5.38,0,0,0,163.21,196.56Z"/><rect class="cls-3" x="144.97" y="211.08" width="39.57" height="17.87" rx="2.75" transform="translate(-16.18 13.1) rotate(-4.34)"/><path class="cls-1" d="M182.33,229.84l-33.44,2.54a5.22,5.22,0,0,1-5.59-4.81l-.9-11.8a5.22,5.22,0,0,1,4.81-5.59l33.43-2.54a5.23,5.23,0,0,1,5.6,4.81l.89,11.79A5.22,5.22,0,0,1,182.33,229.84Zm-34.79-15.28a.83.83,0,0,0-.76.88l.9,11.8a.83.83,0,0,0,.88.76L182,225.46a.83.83,0,0,0,.76-.88l-.9-11.8A.83.83,0,0,0,181,212Z"/><path class="cls-1" d="M161.79,194.71l2.42-3.9c2.57-4.12,15.81-24.52,24.86-21.63a6.26,6.26,0,0,1,4.5,6.84c-.87,9.35-14.53,16.56-27.22,18.13ZM187,173.29c-3.1.24-9.5,5.82-16.26,15.64,12.4-2.85,18.17-9.77,18.51-13.32a1.87,1.87,0,0,0-1.42-2.23h0A1.92,1.92,0,0,0,187,173.29Z"/><path class="cls-1" d="M165.18,194.45l-4.6.14c-12.78.36-27.37-4.7-29.65-13.81a6.26,6.26,0,0,1,3.42-7.44c8.51-4.24,24.68,13.94,27.84,17.62Zm-28.12-17.37a2.24,2.24,0,0,0-.76.19,1.87,1.87,0,0,0-1.13,2.39l0,.05c.87,3.46,7.63,9.43,20.31,10.38C147.33,181.4,140.16,176.84,137.06,177.08Z"/><path class="cls-4" d="M164.7,192.1c.08,1-.38,1.92-1,2s-1.22-.76-1.3-1.8.38-1.92,1-2S164.62,191.06,164.7,192.1Z"/><rect class="cls-1" x="160.28" width="6.95" height="192.27"/><path class="cls-1" d="M370.85,161.48l3.15-3.35c3.33-3.52,20.37-20.89,28.66-16.26a6.27,6.27,0,0,1,3,7.6c-2.71,9-17.53,13.35-30.28,12.36Zm28.91-16c-3.08-.39-10.47,3.82-19,12.1,12.71-.33,19.75-6,20.78-9.38a1.88,1.88,0,0,0-1-2.47l0,0A2,2,0,0,0,399.76,145.48Z"/><path class="cls-1" d="M374.22,161.9l-4.53-.78c-12.6-2.18-25.89-10-26.32-19.43a6.27,6.27,0,0,1,4.82-6.61c9.2-2.45,21.43,18.56,23.79,22.8Zm-24.11-22.61a1.71,1.71,0,0,0-.78,0,1.87,1.87,0,0,0-1.58,2.12v.05c.16,3.55,5.6,10.75,17.84,14.2C359.32,145.56,353.19,139.67,350.11,139.29Z"/><path class="cls-4" d="M374.22,159.5c-.13,1-.75,1.81-1.38,1.73s-1-1-.92-2,.75-1.81,1.38-1.73S374.35,158.46,374.22,159.5Z"/><path class="cls-2" d="M401.28,258.84a78.34,78.34,0,0,0,3.34-50.38c-7.62-27.45-3.37-38,18.92-39.6l1-13.86s-136.18,5.84-134.61,93.63Z"/><path class="cls-1" d="M287.76,250.64v-2c-.66-36.92,22.91-65.22,68.16-81.84,33.78-12.41,68.22-14,68.56-14l2.46-.1-1.3,18.21-1.9.14c-9.25.68-14.89,2.9-17.77,7-3.71,5.27-3.46,14.48.8,29.84,7.75,27.93-3,50.95-3.47,51.92l-.66,1.38Zm134.4-93.29c-8.39.61-36.87,3.34-64.85,13.63-43.08,15.85-65,41.29-65.21,75.65l107.78,9.88c2.12-5.28,8.88-24.92,2.62-47.46-4.71-17-4.76-27-.16-33.55,3.47-4.92,9.58-7.7,19.14-8.67Z"/><rect class="cls-3" x="322.17" y="207.99" width="43.83" height="134.57" rx="4.69" transform="translate(28.34 582.65) rotate(-82.89)"/><path class="cls-1" d="M402.77,306.88,279.45,291.51a7.37,7.37,0,0,1-6.38-8.2L277.22,250a7.34,7.34,0,0,1,8.2-6.38L408.74,259a7.34,7.34,0,0,1,6.38,8.2L411,300.5a7.34,7.34,0,0,1-8.2,6.38ZM284.88,248a3,3,0,0,0-3.3,2.56l-4.15,33.28a3,3,0,0,0,2.57,3.3l123.32,15.37a3,3,0,0,0,3.29-2.56l4.15-33.28a3,3,0,0,0-2.56-3.29Z"/><circle class="cls-3" cx="433.79" cy="157.65" r="16.8" transform="translate(-9.97 284.54) rotate(-35.93)"/><path class="cls-1" d="M431.42,176.48A19,19,0,1,1,452.63,160h0A19,19,0,0,1,431.42,176.48Zm4.16-33.35a14.61,14.61,0,1,0,12.69,16.31h0a14.62,14.62,0,0,0-12.69-16.3Z"/><rect class="cls-1" x="369.52" width="6.95" height="160.5"/><polygon class="cls-1" points="504.63 219.67 497.68 219.67 497.68 0 503.04 0 504.63 219.67"/><rect class="cls-1" x="664.24" width="6.95" height="214.19"/><polygon class="cls-1" points="859.66 250.35 852.71 250.35 852.71 0 859.5 0 859.66 250.35"/><polygon class="cls-1" points="994.44 263.5 987.49 263.5 987.49 0 993.6 0 994.44 263.5"/><polygon class="cls-1" points="1150.04 227.34 1143.09 227.34 1143.09 -0.63 1148.66 -0.31 1150.04 227.34"/><path class="cls-2" d="M132.44,305.86a3.13,3.13,0,0,0,2.64-2.81l7.8-1.22-4.73,6.48,1.24.9,5.63-7.72,4.07-.63-4.73,6.48,1.24.9,5.63-7.72,4.07-.63-4.73,6.48,1.24.9,5.63-7.72,1.72-.26a12.32,12.32,0,0,0,4.11,7l-1,1.32-9.44,1.48.24,1.51,7.92-1.23-2.42,3.32-9.44,1.47.24,1.52,7.92-1.24-2.43,3.33-9.44,1.47.24,1.52,7.92-1.24L149,325.87a3.13,3.13,0,1,0,1.24.9l4.65-6.38,1.24,7.93,1.51-.24-1.47-9.44,2.43-3.32,1.23,7.92,1.52-.24-1.48-9.43,2.43-3.33,1.24,7.92,1.51-.23-1.47-9.44,1-1.3a12.4,12.4,0,0,0,7.92,2l.24,1.55L167,318.45l1.24.9,4.73-6.47.63,4.06-5.6,7.72,1.24.9,4.73-6.48.63,4.07-5.6,7.71,1.24.91,4.73-6.48,1.22,7.8a3.13,3.13,0,1,0,1.51-.24l-1.22-7.79,6.48,4.72.9-1.24-7.71-5.63-.64-4.06,6.48,4.72.9-1.24-7.71-5.63-.64-4.06,6.48,4.72.91-1.23-7.72-5.64L174,309a12.29,12.29,0,0,0,6.95-4.26l1.32,1,1.48,9.44,1.51-.24L184,306.94l3.32,2.43,1.47,9.43,1.52-.23L189,310.65l3.33,2.42,1.47,9.44,1.52-.24-1.24-7.92,6.37,4.65a3.15,3.15,0,1,0,.91-1.24L195,313.11l7.92-1.24-.23-1.51-9.44,1.47-3.32-2.42,7.92-1.24-.24-1.52-9.44,1.48-3.32-2.43,7.92-1.24-.24-1.51-9.43,1.47-1.33-1a12.43,12.43,0,0,0,1.84-7.95l1.72-.26,7.7,5.66.9-1.24-6.46-4.75,4.07-.62,7.7,5.65.91-1.23L193.69,294l4.07-.62,7.7,5.65.91-1.23-6.46-4.8,7.8-1.19a3.15,3.15,0,1,0-.23-1.52l-7.81,1.19,4.75-6.46-1.24-.91-5.65,7.7-4.07.63,4.75-6.47-1.24-.9-5.65,7.69-4.07.63,4.75-6.47-1.24-.9-5.66,7.69-1.74.27a12.35,12.35,0,0,0-4.26-6.76l1.12-1.52,9.44-1.44-.24-1.52L181.5,284l2.44-3.31,9.44-1.45-.24-1.51-7.92,1.21,2.44-3.32,9.44-1.44-.24-1.52-7.92,1.21,4.67-6.36a3.13,3.13,0,1,0-1.23-.9L187.7,273l-1.21-8-1.52.23,1.45,9.45L184,278l-1.21-7.92-1.52.23,1.45,9.44-2.44,3.32-1.21-7.93-1.52.23,1.45,9.45-1.13,1.53a12.35,12.35,0,0,0-7.7-1.83l-.29-1.91,5.65-7.7-1.24-.91-4.74,6.46-.62-4.06,5.65-7.7-1.24-.91-4.74,6.46-.63-4.07,5.66-7.69-1.24-.91L167.63,268l-1.2-7.8a3.14,3.14,0,1,0-1.52.23l1.2,7.8-6.46-4.74-.91,1.23,7.7,5.66.62,4.06-6.46-4.74-.91,1.23,7.7,5.66.62,4.07-6.46-4.75-.91,1.24,7.7,5.65.29,1.92a12.27,12.27,0,0,0-6.78,4.11l-1.52-1.11-1.44-9.45-1.52.24,1.21,7.92L155.27,284l-1.45-9.45-1.51.24,1.21,7.92-3.32-2.43-1.44-9.45-1.52.24,1.21,7.92-6.36-4.67a3.14,3.14,0,1,0-.91,1.24l6.36,4.67-7.92,1.21.23,1.52,9.44-1.45,3.32,2.44-7.92,1.21.23,1.52,9.44-1.45,3.31,2.44-7.92,1.21.23,1.52,9.44-1.45,1.51,1.11a12.35,12.35,0,0,0-2,7.68l-1.75.27-7.71-5.63-.91,1.24,6.48,4.72-4,.66-7.72-5.63-.9,1.24,6.47,4.72-4.06.64-7.72-5.63-.9,1.24,6.47,4.72-7.8,1.22a3.14,3.14,0,1,0-2.4,4.33Zm27.8-6.74,6.07-.95a5.15,5.15,0,0,0,1.24,2.22l-3.64,5A11.3,11.3,0,0,1,160.24,299.12Zm4.9,7.18,3.62-5a5.2,5.2,0,0,0,2.53.67l1,6.09A11.28,11.28,0,0,1,165.14,306.3Zm8.62,1.57-.95-6.09a5,5,0,0,0,2.21-1.36l5,3.63A11.31,11.31,0,0,1,173.76,307.87Zm7.13-5.07-5-3.63a5,5,0,0,0,.55-2.57l6.07-.93A11.24,11.24,0,0,1,180.89,302.8Zm1.38-8.64-6.11.93a5.12,5.12,0,0,0-1.34-2l3.63-4.95a11.28,11.28,0,0,1,3.82,6Zm-5.07-6.94-3.65,5a5.09,5.09,0,0,0-2.3-.51l-.93-6.09a11.22,11.22,0,0,1,6.88,1.6Zm-8.4-1.38.93,6.09a5.1,5.1,0,0,0-2,1.22l-5-3.64a11.16,11.16,0,0,1,6.07-3.67Zm-7,4.9,5,3.64a5.11,5.11,0,0,0-.63,2.26l-6.1,1a11.27,11.27,0,0,1,1.74-6.9Z"/></svg>
