<svg xmlns="http://www.w3.org/2000/svg" viewBox="0 0 1085.2 423.14"><defs><style>.cls-1{fill:#4b0027;}.cls-2{fill:#fe9900;}.cls-3{fill:#fff;}.cls-4{fill:#a1262a;}</style></defs><g id="Calque_2" data-name="Calque 2"><g id="OBJECTS"><circle class="cls-1" cx="887.51" cy="380.68" r="22.4"/><path class="cls-1" d="M887.51,405.28a24.6,24.6,0,1,1,24.6-24.6h0A24.63,24.63,0,0,1,887.51,405.28Zm0-44.8a20.21,20.21,0,1,0,20.21,20.21h0A20.22,20.22,0,0,0,887.51,360.48Z"/><polygon class="cls-2" points="836.41 363.38 845.27 353.66 847.29 346.56 846.36 312.02 851.35 288.64 861.46 274.03 872.9 266.48 891.53 264.41 906.99 267.7 922.21 277.68 928.18 287.91 931.83 303.98 932.93 321.76 932.32 338.56 932.07 348.06 935.48 355.97 942.54 363.4 944.49 366.07 837.06 365.46 836.41 363.38"/><path class="cls-1" d="M946.69,367.63H837.06a3.34,3.34,0,0,1-1.89-6.09c3.44-2.36,9.32-7.48,9.93-15.19a83.69,83.69,0,0,0-.32-9.1c-1-16.22-2.94-46.42,12.92-63,7.61-8,18.45-11.87,32.2-11.63l-.08,4.4c-12.49-.22-22.22,3.23-29,10.27-14.53,15.2-12.7,44.14-11.7,59.69a85.34,85.34,0,0,1,.31,9.73c-.62,7.74-5.34,13.24-9.28,16.53H946.64Z"/><path class="cls-1" d="M945.77,367.46c-.6-.28-14.58-6.85-15.69-20.73a85.35,85.35,0,0,1,.32-9.73c1-15.55,2.82-44.49-11.7-59.69-6.73-7.05-16.47-10.51-29-10.27l-.08-4.4c13.75-.25,24.59,3.67,32.2,11.63,15.86,16.59,13.94,46.79,12.91,63a83.77,83.77,0,0,0-.32,9.1c.91,11.28,13,17,13.15,17.08Z"/><rect class="cls-3" x="833.21" y="362.91" width="113.96" height="21.92" rx="3.99"/><path class="cls-1" d="M942.79,387H837.59a6.58,6.58,0,0,1-6.57-6.58V367.29a6.58,6.58,0,0,1,6.57-6.58h105.2a6.6,6.6,0,0,1,6.58,6.58v13.15A6.6,6.6,0,0,1,942.79,387Zm-105.2-21.91a2.2,2.2,0,0,0-2.18,2.18v13.15a2.19,2.19,0,0,0,2.18,2.19h105.2a2.19,2.19,0,0,0,2.19-2.19V367.29a2.19,2.19,0,0,0-2.19-2.18Z"/><path class="cls-1" d="M887.79,264.63l2.71-3.7c2.87-3.92,17.63-23.26,26.43-19.69a6.29,6.29,0,0,1,4,7.16c-1.58,9.26-15.74,15.42-28.52,16Zm26.71-19.45c-3.1,0-9.91,5.09-17.4,14.37,12.58-1.91,18.87-8.38,19.47-11.89a2.08,2.08,0,0,0-2.07-2.48Z"/><path class="cls-1" d="M891.19,264.63l-4.59-.21c-12.78-.6-26.94-6.76-28.52-16a6.25,6.25,0,0,1,4-7.16c8.83-3.57,23.56,15.77,26.43,19.69Zm-26.72-19.45a2.08,2.08,0,0,0-2.1,2.06h0a1.48,1.48,0,0,0,0,.42c.6,3.51,6.88,10,19.46,11.89-7.49-9.28-14.3-14.37-17.4-14.37Z"/><path class="cls-4" d="M890.89,262.25c0,1-.52,1.89-1.16,1.89s-1.15-.85-1.15-1.89.51-1.89,1.15-1.89S890.89,261.21,890.89,262.25Z"/><path class="cls-1" d="M779.79,346l5.56-56.71-66.23-9.61-5,50.89c-.61,6.26-6.12,11-12.81,11.1l-5.46.05a28.69,28.69,0,0,0-7.43,1.07,38.73,38.73,0,0,1-2.52,47.39,28.27,28.27,0,0,0,9.89,2.16l41,1.42a41.91,41.91,0,0,0,5.71-.18A38.74,38.74,0,0,1,779.8,346Z"/><path class="cls-1" d="M693.85,394.36a30.87,30.87,0,0,1-8.77-2.2L682.27,391l2-2.3a36.51,36.51,0,0,0,2.39-44.7l-1.76-2.53,3-.84a30.43,30.43,0,0,1,8-1.14l5.46-.06c5.57-.05,10.14-4,10.65-9.11l5.21-53.18,70.56,10.24-6,60.76h-2A36.55,36.55,0,0,0,744.59,393l.58,2.45-2.5.24a46.27,46.27,0,0,1-6,.19l-41-1.42C695.12,394.47,694.48,394.42,693.85,394.36Zm-4.28-5.28a26,26,0,0,0,6.33,1l41,1.42h3a40.94,40.94,0,0,1,33.53-47.19,43.62,43.62,0,0,1,4.42-.5L783,291.1l-61.86-9-4.76,48.6c-.72,7.38-7.16,13-15,13.07l-5.45.06a25.6,25.6,0,0,0-3.92.33A40.91,40.91,0,0,1,689.6,389Z"/><path class="cls-2" d="M778.49,359.28l1.3-13.33a38.78,38.78,0,0,0-38.31,39.24,38.36,38.36,0,0,0,1,8.34C761.43,391.7,776.7,377.63,778.49,359.28Z"/><path class="cls-1" d="M740.79,395.91l-.43-1.87a40.9,40.9,0,0,1,30.45-49.19,40.37,40.37,0,0,1,9-1.09h2.45l-1.54,15.77c-1.87,19-17.84,34.28-38,36.22Zm36.57-47.66a36.52,36.52,0,0,0-33.58,39.26h0a33.42,33.42,0,0,0,.46,3.6c17.12-2.5,30.46-15.7,32.06-32Z"/><path class="cls-2" d="M688.45,342.74c-9.91,2.8-17.43,10.88-18.69,21-1.44,11.48,5.55,22,16.17,26.39A38.73,38.73,0,0,0,688.45,342.74Z"/><path class="cls-1" d="M686.55,392.77l-1.46-.61c-11.81-4.88-19-16.68-17.51-28.7,1.34-10.77,9.3-19.73,20.27-22.84l1.51-.42.9,1.29a40.93,40.93,0,0,1-2.67,50.08Zm1-47.44A23.06,23.06,0,0,0,672,364c-1.22,9.71,4.11,18.94,13.36,23.43a36.49,36.49,0,0,0,2.23-42.11Z"/><rect class="cls-2" x="737.23" y="227.09" width="33.18" height="86.74" rx="4.29" transform="translate(411.22 994.35) rotate(-84.41)"/><path class="cls-1" d="M790.45,293l-76.94-7.54a6.9,6.9,0,0,1-6.2-7.53h0l2.31-23.64a6.92,6.92,0,0,1,7.55-6.2l77,7.57a6.93,6.93,0,0,1,6.2,7.55L798,286.82A6.91,6.91,0,0,1,790.45,293Zm-73.71-40.56a2.53,2.53,0,0,0-2.75,2.26l-2.31,23.64a2.51,2.51,0,0,0,2.24,2.75h0l77,7.54a2.53,2.53,0,0,0,2.75-2.26L796,262.7a2.53,2.53,0,0,0-2.26-2.75Z"/><path class="cls-1" d="M752.33,252.52l3.06-3.42c3.24-3.62,19.79-21.43,28.22-17a6.27,6.27,0,0,1,3.25,7.51c-2.47,9.07-17.17,13.81-29.94,13.17Zm28.48-16.75c-3.09-.31-10.36,4.09-18.72,12.6,12.71-.67,19.59-6.5,20.53-9.93a1.87,1.87,0,0,0-1-2.44h0A1.79,1.79,0,0,0,780.81,235.77Z"/><path class="cls-1" d="M755.71,252.85l-4.55-.66c-12.66-1.84-26.15-9.35-26.82-18.72a6.24,6.24,0,0,1,4.65-6.73c9.11-2.7,21.91,18,24.38,22.16Zm-24.69-22a2.09,2.09,0,0,0-.79.06,1.87,1.87,0,0,0-1.52,2.16h0c.26,3.55,5.88,10.6,18.21,13.72-6.54-9.92-12.81-15.65-15.91-16Z"/><path class="cls-4" d="M755.65,250.45c-.1,1-.7,1.83-1.34,1.77s-1.07-1-1-2,.7-1.83,1.34-1.77S755.75,249.42,755.65,250.45Z"/><path class="cls-1" d="M566.55,215.86l2.11-3.69c2.22-3.9,13.75-23.24,22.22-20.89a5.81,5.81,0,0,1,4.4,6.17c-.48,8.68-12.85,15.83-24.53,17.73Zm22.51-20.7c-2.85.33-8.57,5.72-14.48,15,11.36-3.07,16.46-9.69,16.64-13a1.73,1.73,0,0,0-1.41-2h0A1.89,1.89,0,0,0,589.06,195.16Z"/><path class="cls-1" d="M569.67,215.51l-4.24.28c-11.81.8-25.48-3.37-27.91-11.72a5.81,5.81,0,0,1,2.89-7c7.72-4.21,23.33,12,26.38,15.31Zm-26.61-15.07a1.88,1.88,0,0,0-.7.2,1.73,1.73,0,0,0-1,2.22l0,0h0c.93,3.16,7.39,8.45,19.15,8.87C552.71,204.07,545.91,200.11,543.06,200.44Z"/><path class="cls-4" d="M569.12,213.35c.11,1-.28,1.79-.86,1.85s-1.16-.65-1.27-1.61.28-1.79.87-1.86S569,212.39,569.12,213.35Z"/><path class="cls-3" d="M641.63,329.88,520.26,343.81a3.92,3.92,0,0,1-4.34-3.45h0l-10.08-87.9L635,237.63l10.13,87.91a3.93,3.93,0,0,1-3.47,4.34Z"/><path class="cls-1" d="M641.8,331.91,520.56,345.82a6,6,0,0,1-6.66-5.26h0l-10.32-89.93,133.2-15.28,10.34,89.9a6,6,0,0,1-5.27,6.65ZM508.12,254.25,518,340.07a1.94,1.94,0,0,0,2.14,1.71h0l121.25-13.91a2,2,0,0,0,1.71-2.16l-9.85-85.82Z"/><rect class="cls-2" x="496.11" y="217.14" width="147.01" height="38.73" rx="5.27" transform="translate(-23.26 66.52) rotate(-6.55)"/><path class="cls-1" d="M639.75,250l-135.4,15.59a7.4,7.4,0,0,1-8.19-6.5L493,231.3a7.39,7.39,0,0,1,6.5-8.19l135.41-15.54a7.4,7.4,0,0,1,8.18,6.5l3.19,27.83A7.4,7.4,0,0,1,639.75,250ZM499.93,227.1a3.33,3.33,0,0,0-2.92,3.68l3.19,27.85a3.33,3.33,0,0,0,3.68,2.93h0L639.29,246a3.33,3.33,0,0,0,2.92-3.68L639,214.5a3.33,3.33,0,0,0-3.68-2.92Z"/><rect class="cls-2" x="554.9" y="217.14" width="35.82" height="120.05" transform="translate(-27.88 67.15) rotate(-6.55)"/><path class="cls-1" d="M599.7,336.63l-39.58,4.51-14.2-123.31,39.63-4.55Zm-36.05,0L595.19,333,582,217.78l-31.54,3.62Z"/><path class="cls-1" d="M398.2,220.32l2.72-3.69c2.87-3.91,17.63-23.25,26.42-19.68a6.26,6.26,0,0,1,4,7.16c-1.58,9.26-15.74,15.41-28.51,16Zm26.72-19.45c-3.1,0-9.91,5.09-17.4,14.37,12.58-1.91,18.86-8.38,19.46-11.89a1.87,1.87,0,0,0-1.22-2.33h-.07A2.07,2.07,0,0,0,424.92,200.87Z"/><path class="cls-1" d="M401.6,220.32l-4.59-.21c-12.78-.61-26.94-6.76-28.52-16a6.29,6.29,0,0,1,4-7.16c8.81-3.57,23.56,15.77,26.42,19.68Zm-26.72-19.45a2,2,0,0,0-.77.13,1.86,1.86,0,0,0-1.31,2.28v.07c.6,3.51,6.89,10,19.47,11.89C384.8,206,378,200.87,374.88,200.87Z"/><path class="cls-4" d="M401.3,217.94c0,1-.51,1.89-1.15,1.89S399,219,399,217.94s.52-1.89,1.16-1.89S401.3,216.9,401.3,217.94Z"/><rect class="cls-3" x="389.95" y="359.64" width="21.58" height="29.72"/><path class="cls-1" d="M413.73,391.56h-26V357.45h26Zm-21.61-4.39h17.19V361.84H392.12Z"/><path class="cls-1" d="M439.9,324h7.9a2.23,2.23,0,0,0,2.23-2.23,2.36,2.36,0,0,0-.33-1.16L427,283.38a2.23,2.23,0,0,1,.74-3.06,2.17,2.17,0,0,1,1.16-.33H435a2.24,2.24,0,0,0,2.24-2.22,2.29,2.29,0,0,0-.36-1.22l-34.75-53.92a2.22,2.22,0,0,0-3.06-.7,2.34,2.34,0,0,0-.7.7L364.5,276.54a2.24,2.24,0,0,0,.72,3.08,2.19,2.19,0,0,0,1.17.34h6.21a2.23,2.23,0,0,1,2.23,2.23h0a2.36,2.36,0,0,1-.33,1.16l-22.71,37.19a2.23,2.23,0,0,0,.74,3.06,2.17,2.17,0,0,0,1.16.33h7.89a2.23,2.23,0,0,1,2.23,2.23h0a2.27,2.27,0,0,1-.31,1.14l-21.77,36.44a2.24,2.24,0,0,0,.77,3.06,2.3,2.3,0,0,0,1.14.31H457.85a2.23,2.23,0,0,0,1.91-3.37L438,327.33a2.24,2.24,0,0,1,.77-3.06,2.3,2.3,0,0,1,1.14-.31Z"/><path class="cls-1" d="M457.85,369.34H343.64a4.41,4.41,0,0,1-3.8-6.7l21.77-36.43-7.92,0a4.44,4.44,0,0,1-4.42-4.46h0a4.39,4.39,0,0,1,.64-2.28l22.72-37.18-6.24-.06a4.44,4.44,0,0,1-4.42-4.46,4.53,4.53,0,0,1,.67-2.32l33.91-53.91a4.39,4.39,0,0,1,3.72-2.07h0a4.39,4.39,0,0,1,3.73,2l34.74,53.91a4.42,4.42,0,0,1-3.72,6.82h-6.15l22.68,37.24a4.43,4.43,0,0,1-3.77,6.74h-7.91l21.78,36.5a4.43,4.43,0,0,1-1.54,6.07,4.38,4.38,0,0,1-2.26.63ZM400.32,223.83l-34,53.91,6.24.05a4.43,4.43,0,0,1,3.78,6.74l-22.72,37.18,7.92.05a4.42,4.42,0,0,1,4.43,4.41,4.51,4.51,0,0,1-.63,2.29l-21.77,36.43,57.08.05h57.16l-21.69-36.48a4.43,4.43,0,0,1,3.8-6.7h7.9l-22.7-37.23a4.42,4.42,0,0,1,1.47-6.09,4.36,4.36,0,0,1,2.31-.65h6.15Z"/><path class="cls-2" d="M354.5,344.23s59-2.63,81.62-44"/><path class="cls-1" d="M354.59,346.43,354.4,342c.57,0,58-3.08,79.79-42.83l3.86,2.11c-9.53,17.4-27,30.71-50.54,38.51A134.14,134.14,0,0,1,354.59,346.43Z"/><path class="cls-2" d="M381.88,248.92s11.06,34.75,46.6,37.91"/><path class="cls-2" d="M428.29,289c-36.58-3.25-48.39-39.07-48.5-39.44l4.18-1.33-2.09.67,2.09-.67c.15.38,11.09,33.38,44.71,36.38Z"/><path class="cls-1" d="M1043.12,226.63l3.49-3c3.68-3.15,22.46-18.62,30.21-13.14a6.27,6.27,0,0,1,2.23,7.88c-3.65,8.65-18.84,11.42-31.41,9.09Zm30.44-12.86c-3-.7-10.81,2.7-20.21,10,12.68,1,20.27-3.86,21.65-7.14a1.87,1.87,0,0,0-.65-2.55h-.06a2.14,2.14,0,0,0-.72-.33Z"/><path class="cls-1" d="M1046.44,227.35l-4.43-1.26c-12.3-3.49-24.68-12.71-24.11-22.09a6.25,6.25,0,0,1,5.49-6.06c9.39-1.48,19.35,20.72,21.25,25.18Zm-21.58-25a2.1,2.1,0,0,0-.79,0,1.87,1.87,0,0,0-1.79,1.94v.06c-.21,3.55,4.43,11.29,16.24,16-5.17-10.81-10.64-17.32-13.66-18Z"/><path class="cls-4" d="M1046.69,225c-.24,1-.93,1.72-1.56,1.58s-.93-1.09-.69-2.1.93-1.72,1.55-1.58S1046.93,224,1046.69,225Z"/><path class="cls-2" d="M1034.45,420.63l.45.09A16.61,16.61,0,0,0,1054,408.06l3.67-15.66a151.14,151.14,0,0,1-35.88,8.51,16.55,16.55,0,0,0,12.64,19.71h0Z"/><path class="cls-1" d="M1033.49,422.63a18.19,18.19,0,0,1-11.16-7.84,19.07,19.07,0,0,1-2.72-14.37l.33-1.56,1.58-.17a148.76,148.76,0,0,0,35.35-8.39l3.84-1.43-4.6,19.65a18.75,18.75,0,0,1-21.61,14.32l-.48-.09h0Zm-9.82-19.77a14.5,14.5,0,0,0,2.33,9.52,13.92,13.92,0,0,0,8.89,6.06l.42.08a14.34,14.34,0,0,0,16.52-11l2.75-11.74a152.5,152.5,0,0,1-30.91,7.12Z"/><path class="cls-2" d="M1065.46,236.1c-6-4.57-14-8-24.61-9.18-31-3.56-50.84,14.54-58.75,32.48C990.49,259.84,1028.12,260.25,1065.46,236.1Z"/><path class="cls-1" d="M978.81,261.43l1.28-2.92c8.28-18.76,28.65-37.49,61-33.77,10.21,1.18,18.85,4.41,25.69,9.61l2.49,1.89-2.63,1.7c-38.25,24.72-77.24,24-84.66,23.65Zm68.68-31.14a59.37,59.37,0,0,0-6.89-1.18C1012.33,225.86,994,241,985.54,257.3a146.55,146.55,0,0,0,75.94-21.3,45.61,45.61,0,0,0-14-5.71Z"/><path class="cls-3" d="M1029,370.78c-2.84,11.83-5.38,22.33-7.15,29.62a3.06,3.06,0,0,1-.1.51,151.14,151.14,0,0,0,35.88-8.51l7.84-33.48A149.68,149.68,0,0,1,1029,370.78Z"/><path class="cls-1" d="M1019,403.42l.64-3.09a1.8,1.8,0,0,1,.1-.46c1.76-7.28,4.31-17.77,7.14-29.61l.34-1.38,1.39-.26a146.57,146.57,0,0,0,35.93-11.69l4.13-2L1059.51,394l-1.1.41a152.1,152.1,0,0,1-36.41,8.64Zm11.83-30.79c-2.39,10-4.56,18.91-6.2,25.69a147.79,147.79,0,0,0,31.15-7.61l6.55-28A151.3,151.3,0,0,1,1030.82,372.63Z"/><path class="cls-3" d="M1081.19,291.78c.37-1.58.67-3.17.93-4.77a144.37,144.37,0,0,1-38.3,20.62c-2.19,9.69-4.77,20.79-7.42,32.05a146.63,146.63,0,0,0,37.28-15.82Z"/><path class="cls-1" d="M1033.42,342.79l.84-3.59c2.9-12.29,5.39-23.07,7.41-32l.27-1.18,1.18-.39a141.81,141.81,0,0,0,37.71-20.34l4.37-3.3-.87,5.41c-.31,1.88-.61,3.44-1,4.92l-7.73,33-.79.48A148.94,148.94,0,0,1,1037,341.86Zm12.27-33.47c-1.77,7.82-3.88,17-6.29,27.25a143.75,143.75,0,0,0,32.35-14.09l7.12-30.4a146.74,146.74,0,0,1-33.18,17.24Z"/><path class="cls-3" d="M1078.8,253.92a41.68,41.68,0,0,0-13.34-17.82c-37.37,24.15-75,23.74-83.36,23.3a50.31,50.31,0,0,0-2.45,6.85,17.19,17.19,0,0,0,18.63,21.63h.3a15.24,15.24,0,0,0,13.15-12.32v-.14c2.94-15.72,30.76-19.24,36.33-1.8A147.39,147.39,0,0,0,1078.8,253.92Z"/><path class="cls-1" d="M991.81,289.68a19.38,19.38,0,0,1-14.46-23.28,4.74,4.74,0,0,1,.18-.72,53.39,53.39,0,0,1,2.56-7.15l.61-1.38,1.52.07c7.19.38,44.93,1,82-23l1.3-.84,1.23.94a44,44,0,0,1,14,18.74l.6,1.49-1.23,1a150,150,0,0,1-31.19,20l-2.27,1.09-.77-2.4c-2.55-8-10.16-10.44-16.43-10.05-6.57.41-14.26,4.21-15.64,11.59V276a17.33,17.33,0,0,1-15,14.09h-.3A19.42,19.42,0,0,1,991.81,289.68Zm-8.28-28a50,50,0,0,0-1.76,5.17A15,15,0,0,0,998,285.71h.29a13,13,0,0,0,11.26-10.55V275c1.55-8.29,9.64-14.53,19.67-15.16,9-.56,16.59,3.6,20,10.75a145.44,145.44,0,0,0,26.88-17.34,39.29,39.29,0,0,0-10.81-14.48c-35.66,22.5-71.64,23.18-81.78,22.84Z"/><path class="cls-2" d="M1073.68,323.89a146.63,146.63,0,0,1-37.28,15.82c-2.49,10.58-5,21.28-7.39,31.07a149.68,149.68,0,0,0,36.47-11.86Z"/><path class="cls-1" d="M1026.12,373.56l.79-3.3c2.35-9.78,4.9-20.48,7.39-31.06l.3-1.27,1.27-.35A143.88,143.88,0,0,0,1072.58,322l4.46-2.68-9.62,41.12-1,.45a150.52,150.52,0,0,1-37,12Zm12.16-32.08c-2.11,9-4.27,18-6.29,26.47a146.47,146.47,0,0,0,31.63-10.57l6.8-29.05a149.19,149.19,0,0,1-32.18,13.15Z"/><path class="cls-2" d="M1082.12,287a64.49,64.49,0,0,0-.12-22,57.36,57.36,0,0,0-3.2-11.11,147.52,147.52,0,0,1-30.68,19.73,25.93,25.93,0,0,1,.29,13.12c-1.1,5.43-2.68,12.68-4.55,21A144.21,144.21,0,0,0,1082.12,287Z"/><path class="cls-1" d="M1040.79,311.08l.88-3.9c2-8.83,3.52-15.87,4.55-20.91a23.91,23.91,0,0,0-.24-12l-.58-1.83,1.72-.81a145.59,145.59,0,0,0,30.27-19.37l2.31-1.92,1.13,2.78a59.8,59.8,0,0,1,3.29,11.51,66.47,66.47,0,0,1,.13,22.73l-.15.87-.7.53a146.16,146.16,0,0,1-38.88,21Zm9.88-36.32a29.69,29.69,0,0,1-.15,12.38c-.87,4.29-2.1,10-3.67,17a142.11,142.11,0,0,0,33.27-18.35,61.57,61.57,0,0,0-.24-20.36,54.67,54.67,0,0,0-2-7.87A150.25,150.25,0,0,1,1050.67,274.76Z"/><circle class="cls-3" cx="70.62" cy="296.81" r="68.4" transform="translate(-189.19 136.87) rotate(-45)"/><path class="cls-1" d="M76,367.21a70.59,70.59,0,1,1,65-75.77h0A70.68,70.68,0,0,1,76,367.21ZM65.62,230.81a66.2,66.2,0,1,0,71,61v0h0A66.26,66.26,0,0,0,65.62,230.81Z"/><path class="cls-3" d="M70.29,202a7.57,7.57,0,1,1-8.12-7,7.57,7.57,0,0,1,8.12,7Z"/><path class="cls-1" d="M63.48,212.29a9.77,9.77,0,1,1,9-10.48h0A9.79,9.79,0,0,1,63.48,212.29Zm-1.15-15.1a5.38,5.38,0,1,0,5.77,5h0a5.38,5.38,0,0,0-5.73-5Z"/><rect class="cls-3" x="44.08" y="211.71" width="39.57" height="17.87" rx="2.75" transform="translate(-16.51 5.47) rotate(-4.34)"/><path class="cls-1" d="M81.45,230.47,48,233a5.22,5.22,0,0,1-5.59-4.81l-.9-11.8a5.22,5.22,0,0,1,4.81-5.59l33.43-2.54a5.24,5.24,0,0,1,5.6,4.81l.89,11.79A5.22,5.22,0,0,1,81.45,230.47ZM46.66,215.19a.83.83,0,0,0-.76.88l.9,11.8a.83.83,0,0,0,.88.76l33.44-2.54a.83.83,0,0,0,.76-.88l-.9-11.8a.83.83,0,0,0-.86-.78Z"/><path class="cls-1" d="M60.91,195.34l2.42-3.9c2.57-4.12,15.81-24.52,24.86-21.63a6.27,6.27,0,0,1,4.5,6.84c-.87,9.35-14.53,16.56-27.22,18.13Zm25.21-21.42c-3.1.24-9.5,5.82-16.26,15.64,12.4-2.85,18.17-9.77,18.51-13.32A1.87,1.87,0,0,0,87,174h0A2,2,0,0,0,86.12,173.92Z"/><path class="cls-1" d="M64.3,195.08l-4.6.14c-12.78.36-27.37-4.7-29.65-13.81A6.25,6.25,0,0,1,33.47,174c8.51-4.24,24.68,13.94,27.84,17.62ZM36.18,177.71a2.24,2.24,0,0,0-.76.19,1.87,1.87,0,0,0-1.13,2.39v.05c.87,3.46,7.63,9.43,20.31,10.38C46.45,182,39.28,177.47,36.18,177.71Z"/><path class="cls-4" d="M63.82,192.73c.08,1-.38,1.92-1,2s-1.22-.76-1.3-1.8.38-1.92,1-2S63.74,191.69,63.82,192.73Z"/><rect class="cls-1" x="59.4" y="0.63" width="6.95" height="192.27"/><path class="cls-1" d="M270,162.11l3.15-3.35c3.33-3.52,20.37-20.89,28.66-16.26a6.27,6.27,0,0,1,3,7.6c-2.71,9-17.53,13.35-30.28,12.36Zm28.91-16c-3.08-.39-10.47,3.82-19,12.1,12.71-.33,19.75-6,20.78-9.38a1.89,1.89,0,0,0-1-2.47h0A2,2,0,0,0,298.88,146.11Z"/><path class="cls-1" d="M273.34,162.53l-4.53-.78c-12.6-2.18-25.89-10-26.32-19.43a6.27,6.27,0,0,1,4.82-6.61c9.2-2.45,21.43,18.56,23.79,22.8Zm-24.11-22.61a1.71,1.71,0,0,0-.78,0,1.87,1.87,0,0,0-1.58,2.12v.05c.16,3.55,5.6,10.75,17.84,14.2C258.44,146.19,252.31,140.3,249.23,139.92Z"/><path class="cls-4" d="M273.34,160.13c-.13,1-.75,1.81-1.38,1.73s-1-1-.92-2,.75-1.81,1.38-1.73S273.47,159.09,273.34,160.13Z"/><path class="cls-2" d="M300.4,259.47a78.41,78.41,0,0,0,3.34-50.38c-7.62-27.45-3.37-38,18.92-39.6l1-13.86s-136.18,5.84-134.61,93.63Z"/><path class="cls-1" d="M186.88,251.27v-2c-.66-36.92,22.91-65.22,68.16-81.84,33.78-12.41,68.22-14,68.56-14l2.46-.1-1.3,18.21-1.9.14c-9.25.68-14.89,2.9-17.77,7-3.71,5.27-3.46,14.48.8,29.84,7.75,27.93-3,51-3.47,51.92l-.66,1.38ZM321.28,158c-8.39.61-36.87,3.34-64.85,13.63-43.08,15.85-65,41.29-65.21,75.65L299,257.14c2.12-5.28,8.88-24.92,2.62-47.46-4.71-17-4.76-27-.16-33.55,3.47-4.92,9.58-7.7,19.14-8.67Z"/><rect class="cls-3" x="221.29" y="208.63" width="43.83" height="134.57" rx="4.69" transform="translate(-60.69 483.1) rotate(-82.89)"/><path class="cls-1" d="M301.89,307.51,178.57,292.14a7.37,7.37,0,0,1-6.38-8.2l4.15-33.31a7.34,7.34,0,0,1,8.18-6.38h0l123.32,15.38a7.34,7.34,0,0,1,6.38,8.19h0l-4.12,33.3a7.35,7.35,0,0,1-8.19,6.38h0ZM184,248.63a3,3,0,0,0-3.3,2.56l-4.15,33.28a3,3,0,0,0,2.57,3.3l123.32,15.37a3,3,0,0,0,3.29-2.56l4.15-33.28a3,3,0,0,0-2.56-3.29Z"/><circle class="cls-3" cx="332.91" cy="158.28" r="16.8" transform="translate(-29.54 225.47) rotate(-35.93)"/><path class="cls-1" d="M330.54,177.11a19,19,0,1,1,21.21-16.49h0A19,19,0,0,1,330.54,177.11Zm4.16-33.35a14.61,14.61,0,1,0,12.69,16.31h0a14.62,14.62,0,0,0-12.69-16.3Z"/><rect class="cls-1" x="268.64" y="0.63" width="6.95" height="160.5"/><polygon class="cls-1" points="403.75 220.3 396.8 220.3 396.8 0.63 402.16 0.63 403.75 220.3"/><rect class="cls-1" x="563.36" y="0.63" width="6.95" height="214.19"/><polygon class="cls-1" points="758.78 250.98 751.83 250.98 751.83 0.63 758.62 0.63 758.78 250.98"/><polygon class="cls-1" points="893.56 264.13 886.61 264.13 886.61 0.63 892.72 0.63 893.56 264.13"/><polygon class="cls-1" points="1049.16 227.97 1042.21 227.97 1042.21 0 1047.78 0.32 1049.16 227.97"/><path class="cls-2" d="M31.56,306.49a3.13,3.13,0,0,0,2.64-2.81l7.8-1.22-4.73,6.48,1.24.9,5.63-7.72,4.07-.63L43.48,308l1.24.9,5.63-7.72,4.07-.63L49.69,307l1.24.9,5.63-7.72,1.72-.26a12.32,12.32,0,0,0,4.11,7l-1,1.32L52,309.72l.24,1.51L60.11,310l-2.42,3.32-9.44,1.47.24,1.52,7.92-1.24L54,318.4l-9.44,1.47.24,1.52,7.92-1.24-4.58,6.35a3.13,3.13,0,1,0,1.24.9L54,321,55.25,329l1.51-.24-1.47-9.44L57.72,316,59,323.87l1.52-.24L59,314.2l2.43-3.33,1.24,7.92,1.51-.23-1.47-9.44,1-1.3a12.4,12.4,0,0,0,7.92,2l.24,1.55-5.74,7.71,1.24.9,4.73-6.47.63,4.06-5.6,7.72,1.24.9,4.73-6.48.63,4.07-5.6,7.71,1.24.91,4.73-6.48,1.22,7.8a3.13,3.13,0,1,0,1.51-.24l-1.22-7.79,6.48,4.72.9-1.24-7.71-5.63-.64-4.06,6.48,4.72L82,323l-7.71-5.63-.64-4.06L80.14,318l.91-1.23-7.72-5.64-.21-1.49a12.33,12.33,0,0,0,6.95-4.26l1.32,1,1.48,9.44,1.51-.24-1.26-8L86.44,310l1.47,9.43,1.52-.23-1.31-7.92,3.33,2.42,1.47,9.44,1.52-.24L93.2,315l6.37,4.65a3.15,3.15,0,1,0,.91-1.24l-6.36-4.65L102,312.5l-.23-1.51-9.44,1.47L89.05,310,97,308.8l-.24-1.52-9.44,1.48L84,306.33l7.92-1.24-.24-1.51-9.43,1.47-1.33-1a12.43,12.43,0,0,0,1.84-7.95l1.72-.26,7.7,5.66.9-1.24-6.46-4.75,4.07-.62,7.7,5.65.91-1.23-6.46-4.68,4.07-.62,7.7,5.65.91-1.23L99,293.63l7.8-1.19a3.15,3.15,0,1,0-.23-1.52l-7.81,1.19,4.75-6.46-1.24-.91-5.65,7.7-4.07.63,4.75-6.47-1.24-.9-5.65,7.69-4.07.63,4.75-6.47-1.24-.9-5.66,7.69-1.74.27a12.35,12.35,0,0,0-4.26-6.76l1.12-1.52,9.44-1.44-.24-1.52-7.92,1.26,2.44-3.31,9.44-1.45-.24-1.51-7.92,1.21,2.44-3.32,9.44-1.44L96,273.29l-7.92,1.21,4.67-6.36a3.13,3.13,0,1,0-1.23-.9l-4.68,6.39-1.21-8-1.52.23,1.45,9.45-2.42,3.32-1.21-7.92-1.52.23,1.45,9.44L79.4,283.7l-1.21-7.93-1.52.23,1.45,9.45L77,287a12.35,12.35,0,0,0-7.7-1.83L69,283.24l5.65-7.7-1.24-.91-4.74,6.46L68.05,277l5.65-7.7-1.24-.91-4.74,6.46-.63-4.07,5.66-7.69-1.24-.91-4.76,6.42-1.2-7.8a3.14,3.14,0,1,0-1.52.23l1.2,7.8-6.46-4.74-.91,1.23,7.7,5.66.62,4.06-6.46-4.74-.91,1.23,7.7,5.66.62,4.07-6.46-4.75-.91,1.24,7.7,5.65.29,1.92A12.27,12.27,0,0,0,61,289.46l-1.52-1.11L58,278.9l-1.52.24,1.21,7.92-3.31-2.43-1.45-9.45-1.51.24,1.21,7.92-3.32-2.43-1.44-9.45-1.52.24,1.21,7.92L41.21,275a3.14,3.14,0,1,0-.91,1.24l6.36,4.67-7.92,1.21.23,1.52,9.44-1.45,3.32,2.44-7.92,1.21.23,1.52,9.44-1.45,3.31,2.44-7.92,1.21L49.1,291l9.44-1.45,1.51,1.11a12.28,12.28,0,0,0-2,7.68l-1.75.27L48.59,293l-.91,1.24L54.16,299l-4,.66L42.44,294l-.9,1.24L48,300,44,300.6,36.23,295l-.9,1.24,6.47,4.72L34,302.15a3.14,3.14,0,1,0-2.4,4.33Zm27.8-6.74,6.07-.95A5.15,5.15,0,0,0,66.67,301L63,306A11.3,11.3,0,0,1,59.36,299.75Zm4.9,7.18,3.62-5a5.09,5.09,0,0,0,2.53.67l1,6.09A11.27,11.27,0,0,1,64.26,306.93Zm8.62,1.57-.95-6.09a5,5,0,0,0,2.21-1.36l5,3.63A11.34,11.34,0,0,1,72.88,308.5ZM80,303.43l-5-3.63a5,5,0,0,0,.55-2.57l6.07-.93A11.24,11.24,0,0,1,80,303.43Zm1.38-8.64-6.11.93a5.12,5.12,0,0,0-1.34-2l3.63-5a11.38,11.38,0,0,1,3.82,6Zm-5.07-6.94-3.65,5a5.11,5.11,0,0,0-2.3-.51l-.93-6.09a11.24,11.24,0,0,1,6.88,1.6Zm-8.4-1.38.93,6.09a5.1,5.1,0,0,0-2,1.22l-5-3.64a11.16,11.16,0,0,1,6.07-3.67Zm-7,4.9,5,3.64a5.11,5.11,0,0,0-.63,2.26l-6.1,1a11.27,11.27,0,0,1,1.74-6.9Z"/></g></g></svg>